<mxfile host="app.diagrams.net" agent="Mozilla/5.0 (Windows NT 10.0; Win64; x64) AppleWebKit/537.36 (KHTML, like Gecko) Chrome/134.0.0.0 Safari/537.36" version="26.1.0" pages="2">
  <diagram name="Página-1" id="sRNZa7kiDYkH80bloFKp">
    <mxGraphModel dx="1050" dy="557" grid="1" gridSize="10" guides="1" tooltips="1" connect="1" arrows="1" fold="1" page="1" pageScale="1" pageWidth="827" pageHeight="1169" math="0" shadow="0">
      <root>
        <mxCell id="0" />
        <mxCell id="1" parent="0" />
        <mxCell id="VHOz2-T-G2ub65A0T3T7-1" value="Cliente" style="shape=umlActor;verticalLabelPosition=bottom;verticalAlign=top;html=1;outlineConnect=0;" parent="1" vertex="1">
          <mxGeometry x="60" y="190" width="70" height="100" as="geometry" />
        </mxCell>
        <mxCell id="VHOz2-T-G2ub65A0T3T7-5" value="&lt;div&gt;&lt;br&gt;&lt;/div&gt;&lt;div&gt;&lt;br&gt;&lt;/div&gt;Fazer Reserva" style="ellipse;whiteSpace=wrap;html=1;verticalAlign=top;" parent="1" vertex="1">
          <mxGeometry x="220" y="110" width="130" height="90" as="geometry" />
        </mxCell>
        <mxCell id="VHOz2-T-G2ub65A0T3T7-7" value="&lt;div&gt;&lt;br&gt;&lt;/div&gt;&lt;div&gt;&lt;br&gt;&lt;/div&gt;&lt;div&gt;&lt;span style=&quot;background-color: transparent; color: light-dark(rgb(0, 0, 0), rgb(255, 255, 255));&quot;&gt;Cancelar Reserva&lt;/span&gt;&lt;/div&gt;" style="ellipse;whiteSpace=wrap;html=1;verticalAlign=top;" parent="1" vertex="1">
          <mxGeometry x="270" y="250" width="130" height="90" as="geometry" />
        </mxCell>
        <mxCell id="VHOz2-T-G2ub65A0T3T7-15" style="edgeStyle=orthogonalEdgeStyle;rounded=0;orthogonalLoop=1;jettySize=auto;html=1;exitX=1;exitY=0.3333333333333333;exitDx=0;exitDy=0;exitPerimeter=0;entryX=0.089;entryY=0.78;entryDx=0;entryDy=0;entryPerimeter=0;" parent="1" source="VHOz2-T-G2ub65A0T3T7-1" target="VHOz2-T-G2ub65A0T3T7-5" edge="1">
          <mxGeometry relative="1" as="geometry" />
        </mxCell>
        <mxCell id="VHOz2-T-G2ub65A0T3T7-16" style="edgeStyle=orthogonalEdgeStyle;rounded=0;orthogonalLoop=1;jettySize=auto;html=1;exitX=1;exitY=1;exitDx=0;exitDy=0;exitPerimeter=0;entryX=0.16;entryY=0.967;entryDx=0;entryDy=0;entryPerimeter=0;" parent="1" source="VHOz2-T-G2ub65A0T3T7-1" target="VHOz2-T-G2ub65A0T3T7-7" edge="1">
          <mxGeometry relative="1" as="geometry" />
        </mxCell>
        <mxCell id="VHOz2-T-G2ub65A0T3T7-18" value="Cliente" style="shape=umlActor;verticalLabelPosition=bottom;verticalAlign=top;html=1;outlineConnect=0;" parent="1" vertex="1">
          <mxGeometry x="20" y="480" width="50" height="70" as="geometry" />
        </mxCell>
        <mxCell id="VHOz2-T-G2ub65A0T3T7-19" value="Técnico" style="shape=umlActor;verticalLabelPosition=bottom;verticalAlign=top;html=1;outlineConnect=0;" parent="1" vertex="1">
          <mxGeometry x="30" y="700" width="40" height="80" as="geometry" />
        </mxCell>
        <mxCell id="VHOz2-T-G2ub65A0T3T7-20" value="Checar Saldo" style="ellipse;whiteSpace=wrap;html=1;" parent="1" vertex="1">
          <mxGeometry x="200" y="370" width="120" height="60" as="geometry" />
        </mxCell>
        <mxCell id="VHOz2-T-G2ub65A0T3T7-21" value="Depositar" style="ellipse;whiteSpace=wrap;html=1;" parent="1" vertex="1">
          <mxGeometry x="200" y="440" width="120" height="60" as="geometry" />
        </mxCell>
        <mxCell id="VHOz2-T-G2ub65A0T3T7-22" value="Sacar" style="ellipse;whiteSpace=wrap;html=1;" parent="1" vertex="1">
          <mxGeometry x="200" y="500" width="120" height="60" as="geometry" />
        </mxCell>
        <mxCell id="VHOz2-T-G2ub65A0T3T7-23" value="Transferir" style="ellipse;whiteSpace=wrap;html=1;" parent="1" vertex="1">
          <mxGeometry x="200" y="570" width="120" height="60" as="geometry" />
        </mxCell>
        <mxCell id="VHOz2-T-G2ub65A0T3T7-24" value="Manutenção" style="ellipse;whiteSpace=wrap;html=1;" parent="1" vertex="1">
          <mxGeometry x="200" y="645" width="120" height="70" as="geometry" />
        </mxCell>
        <mxCell id="VHOz2-T-G2ub65A0T3T7-25" value="Reparo" style="ellipse;whiteSpace=wrap;html=1;" parent="1" vertex="1">
          <mxGeometry x="200" y="720" width="120" height="70" as="geometry" />
        </mxCell>
        <mxCell id="VHOz2-T-G2ub65A0T3T7-27" value="Banco" style="shape=umlActor;verticalLabelPosition=bottom;verticalAlign=top;html=1;outlineConnect=0;" parent="1" vertex="1">
          <mxGeometry x="490" y="530" width="40" height="75" as="geometry" />
        </mxCell>
        <mxCell id="VHOz2-T-G2ub65A0T3T7-30" value="" style="endArrow=none;html=1;rounded=0;entryX=0;entryY=0.5;entryDx=0;entryDy=0;" parent="1" edge="1">
          <mxGeometry width="50" height="50" relative="1" as="geometry">
            <mxPoint x="80" y="500" as="sourcePoint" />
            <mxPoint x="200" y="410" as="targetPoint" />
          </mxGeometry>
        </mxCell>
        <mxCell id="VHOz2-T-G2ub65A0T3T7-31" value="" style="endArrow=none;html=1;rounded=0;" parent="1" edge="1">
          <mxGeometry width="50" height="50" relative="1" as="geometry">
            <mxPoint x="80" y="510" as="sourcePoint" />
            <mxPoint x="190" y="470" as="targetPoint" />
          </mxGeometry>
        </mxCell>
        <mxCell id="VHOz2-T-G2ub65A0T3T7-32" value="" style="endArrow=none;html=1;rounded=0;" parent="1" edge="1">
          <mxGeometry width="50" height="50" relative="1" as="geometry">
            <mxPoint x="80" y="525" as="sourcePoint" />
            <mxPoint x="190" y="525" as="targetPoint" />
          </mxGeometry>
        </mxCell>
        <mxCell id="VHOz2-T-G2ub65A0T3T7-33" value="" style="endArrow=none;html=1;rounded=0;" parent="1" edge="1">
          <mxGeometry width="50" height="50" relative="1" as="geometry">
            <mxPoint x="80" y="540" as="sourcePoint" />
            <mxPoint x="190" y="580" as="targetPoint" />
          </mxGeometry>
        </mxCell>
        <mxCell id="VHOz2-T-G2ub65A0T3T7-34" value="" style="endArrow=none;html=1;rounded=0;" parent="1" edge="1">
          <mxGeometry width="50" height="50" relative="1" as="geometry">
            <mxPoint x="100" y="730" as="sourcePoint" />
            <mxPoint x="190" y="700" as="targetPoint" />
          </mxGeometry>
        </mxCell>
        <mxCell id="VHOz2-T-G2ub65A0T3T7-35" value="" style="endArrow=none;html=1;rounded=0;" parent="1" edge="1">
          <mxGeometry width="50" height="50" relative="1" as="geometry">
            <mxPoint x="100" y="750" as="sourcePoint" />
            <mxPoint x="190" y="760" as="targetPoint" />
          </mxGeometry>
        </mxCell>
        <mxCell id="VHOz2-T-G2ub65A0T3T7-37" value="" style="endArrow=none;html=1;rounded=0;" parent="1" edge="1">
          <mxGeometry width="50" height="50" relative="1" as="geometry">
            <mxPoint x="330" y="410" as="sourcePoint" />
            <mxPoint x="480" y="540" as="targetPoint" />
          </mxGeometry>
        </mxCell>
        <mxCell id="VHOz2-T-G2ub65A0T3T7-39" value="" style="endArrow=none;html=1;rounded=0;" parent="1" edge="1">
          <mxGeometry width="50" height="50" relative="1" as="geometry">
            <mxPoint x="330" y="470" as="sourcePoint" />
            <mxPoint x="470" y="550" as="targetPoint" />
          </mxGeometry>
        </mxCell>
        <mxCell id="VHOz2-T-G2ub65A0T3T7-40" value="" style="endArrow=none;html=1;rounded=0;" parent="1" edge="1">
          <mxGeometry width="50" height="50" relative="1" as="geometry">
            <mxPoint x="330" y="530" as="sourcePoint" />
            <mxPoint x="470" y="560" as="targetPoint" />
            <Array as="points">
              <mxPoint x="390" y="540" />
            </Array>
          </mxGeometry>
        </mxCell>
        <mxCell id="VHOz2-T-G2ub65A0T3T7-41" value="" style="endArrow=none;html=1;rounded=0;" parent="1" edge="1">
          <mxGeometry width="50" height="50" relative="1" as="geometry">
            <mxPoint x="330" y="585" as="sourcePoint" />
            <mxPoint x="470" y="575" as="targetPoint" />
          </mxGeometry>
        </mxCell>
        <mxCell id="VHOz2-T-G2ub65A0T3T7-42" value="" style="endArrow=none;html=1;rounded=0;" parent="1" edge="1">
          <mxGeometry width="50" height="50" relative="1" as="geometry">
            <mxPoint x="340" y="680" as="sourcePoint" />
            <mxPoint x="470" y="590" as="targetPoint" />
          </mxGeometry>
        </mxCell>
        <mxCell id="VHOz2-T-G2ub65A0T3T7-43" value="" style="endArrow=none;html=1;rounded=0;" parent="1" edge="1">
          <mxGeometry width="50" height="50" relative="1" as="geometry">
            <mxPoint x="350" y="740" as="sourcePoint" />
            <mxPoint x="480" y="620" as="targetPoint" />
          </mxGeometry>
        </mxCell>
        <mxCell id="VHOz2-T-G2ub65A0T3T7-44" value="" style="rounded=0;whiteSpace=wrap;html=1;fillColor=none;strokeColor=#6c8ebf;" parent="1" vertex="1">
          <mxGeometry x="130" y="360" width="270" height="440" as="geometry" />
        </mxCell>
        <mxCell id="VHOz2-T-G2ub65A0T3T7-45" style="edgeStyle=orthogonalEdgeStyle;rounded=0;orthogonalLoop=1;jettySize=auto;html=1;exitX=0;exitY=0;exitDx=0;exitDy=0;entryX=0.011;entryY=0.026;entryDx=0;entryDy=0;entryPerimeter=0;" parent="1" source="VHOz2-T-G2ub65A0T3T7-44" target="VHOz2-T-G2ub65A0T3T7-44" edge="1">
          <mxGeometry relative="1" as="geometry" />
        </mxCell>
      </root>
    </mxGraphModel>
  </diagram>
  <diagram id="x3wchXndsXh5wcxZfgMt" name="Página-2">
    <mxGraphModel dx="194568" dy="137330" grid="1" gridSize="10" guides="1" tooltips="1" connect="1" arrows="1" fold="1" page="1" pageScale="1" pageWidth="827" pageHeight="1169" math="0" shadow="0">
      <root>
        <mxCell id="0" />
        <mxCell id="1" parent="0" />
        <mxCell id="HNHx5nUEhZeaWCpCJhk9-1" value="Sistema de Reservas de Hotel" style="swimlane" vertex="1" parent="1">
          <mxGeometry x="530" y="295" width="240" height="550" as="geometry" />
        </mxCell>
        <mxCell id="HNHx5nUEhZeaWCpCJhk9-2" value="Fazer Reserva" style="ellipse" vertex="1" parent="HNHx5nUEhZeaWCpCJhk9-1">
          <mxGeometry x="60" y="30" width="120" height="40" as="geometry" />
        </mxCell>
        <mxCell id="HNHx5nUEhZeaWCpCJhk9-3" value="Cancelar Reserva" style="ellipse" vertex="1" parent="HNHx5nUEhZeaWCpCJhk9-1">
          <mxGeometry x="55" y="70" width="120" height="40" as="geometry" />
        </mxCell>
        <mxCell id="HNHx5nUEhZeaWCpCJhk9-4" value="Consultar Disponibilidade" style="ellipse" vertex="1" parent="HNHx5nUEhZeaWCpCJhk9-1">
          <mxGeometry x="37.5" y="125" width="160" height="40" as="geometry" />
        </mxCell>
        <mxCell id="HNHx5nUEhZeaWCpCJhk9-5" value="Gerenciar Reserva" style="ellipse" vertex="1" parent="HNHx5nUEhZeaWCpCJhk9-1">
          <mxGeometry x="50" y="185" width="140" height="40" as="geometry" />
        </mxCell>
        <mxCell id="HNHx5nUEhZeaWCpCJhk9-22" value="Fazer Check in" style="ellipse;whiteSpace=wrap;html=1;" vertex="1" parent="HNHx5nUEhZeaWCpCJhk9-1">
          <mxGeometry x="55" y="285" width="135" height="35" as="geometry" />
        </mxCell>
        <mxCell id="HNHx5nUEhZeaWCpCJhk9-23" value="Confirmar Reserva" style="ellipse;whiteSpace=wrap;html=1;" vertex="1" parent="HNHx5nUEhZeaWCpCJhk9-1">
          <mxGeometry x="50" y="237" width="147.5" height="35" as="geometry" />
        </mxCell>
        <mxCell id="HNHx5nUEhZeaWCpCJhk9-26" value="" style="endArrow=none;html=1;rounded=0;" edge="1" parent="HNHx5nUEhZeaWCpCJhk9-1" target="HNHx5nUEhZeaWCpCJhk9-4">
          <mxGeometry width="50" height="50" relative="1" as="geometry">
            <mxPoint x="-70" y="105" as="sourcePoint" />
            <mxPoint x="50" y="95" as="targetPoint" />
          </mxGeometry>
        </mxCell>
        <mxCell id="HNHx5nUEhZeaWCpCJhk9-10" value="Sistema de Pagamento" style="ellipse" vertex="1" parent="HNHx5nUEhZeaWCpCJhk9-1">
          <mxGeometry x="55" y="415" width="140" height="35" as="geometry" />
        </mxCell>
        <mxCell id="HNHx5nUEhZeaWCpCJhk9-6" value="Finalizar Pagamento" style="ellipse" vertex="1" parent="HNHx5nUEhZeaWCpCJhk9-1">
          <mxGeometry x="50" y="455" width="140" height="40" as="geometry" />
        </mxCell>
        <mxCell id="HNHx5nUEhZeaWCpCJhk9-18" edge="1" parent="HNHx5nUEhZeaWCpCJhk9-1" source="HNHx5nUEhZeaWCpCJhk9-6" target="HNHx5nUEhZeaWCpCJhk9-10" />
        <mxCell id="HNHx5nUEhZeaWCpCJhk9-7" value="Emitir Comprovante" style="ellipse" vertex="1" parent="HNHx5nUEhZeaWCpCJhk9-1">
          <mxGeometry x="50" y="505" width="140" height="40" as="geometry" />
        </mxCell>
        <mxCell id="HNHx5nUEhZeaWCpCJhk9-33" value="Fazer check out" style="ellipse;whiteSpace=wrap;html=1;" vertex="1" parent="HNHx5nUEhZeaWCpCJhk9-1">
          <mxGeometry x="55" y="335" width="125" height="40" as="geometry" />
        </mxCell>
        <mxCell id="HNHx5nUEhZeaWCpCJhk9-34" value="" style="endArrow=none;html=1;rounded=0;" edge="1" parent="HNHx5nUEhZeaWCpCJhk9-1">
          <mxGeometry width="50" height="50" relative="1" as="geometry">
            <mxPoint x="-80" y="265" as="sourcePoint" />
            <mxPoint x="55" y="295" as="targetPoint" />
          </mxGeometry>
        </mxCell>
        <mxCell id="HNHx5nUEhZeaWCpCJhk9-35" value="" style="endArrow=none;html=1;rounded=0;" edge="1" parent="HNHx5nUEhZeaWCpCJhk9-1">
          <mxGeometry width="50" height="50" relative="1" as="geometry">
            <mxPoint x="-80" y="265" as="sourcePoint" />
            <mxPoint x="55" y="345" as="targetPoint" />
          </mxGeometry>
        </mxCell>
        <mxCell id="HNHx5nUEhZeaWCpCJhk9-11" edge="1" parent="1" source="HNHx5nUEhZeaWCpCJhk9-8" target="HNHx5nUEhZeaWCpCJhk9-2" />
        <mxCell id="HNHx5nUEhZeaWCpCJhk9-12" edge="1" parent="1" source="HNHx5nUEhZeaWCpCJhk9-8" target="HNHx5nUEhZeaWCpCJhk9-3" />
        <mxCell id="HNHx5nUEhZeaWCpCJhk9-13" edge="1" parent="1" source="HNHx5nUEhZeaWCpCJhk9-8" target="HNHx5nUEhZeaWCpCJhk9-4" />
        <mxCell id="HNHx5nUEhZeaWCpCJhk9-14" edge="1" parent="1" source="HNHx5nUEhZeaWCpCJhk9-8" target="HNHx5nUEhZeaWCpCJhk9-6" />
        <mxCell id="HNHx5nUEhZeaWCpCJhk9-15" edge="1" parent="1" source="HNHx5nUEhZeaWCpCJhk9-9" target="HNHx5nUEhZeaWCpCJhk9-4" />
        <mxCell id="HNHx5nUEhZeaWCpCJhk9-16" edge="1" parent="1" source="HNHx5nUEhZeaWCpCJhk9-9" target="HNHx5nUEhZeaWCpCJhk9-5" />
        <mxCell id="HNHx5nUEhZeaWCpCJhk9-17" edge="1" parent="1" source="HNHx5nUEhZeaWCpCJhk9-9" target="HNHx5nUEhZeaWCpCJhk9-7" />
        <mxCell id="HNHx5nUEhZeaWCpCJhk9-19" value="Hóspede" style="shape=umlActor;verticalLabelPosition=bottom;verticalAlign=top;html=1;outlineConnect=0;" vertex="1" parent="1">
          <mxGeometry x="415" y="390" width="30" height="60" as="geometry" />
        </mxCell>
        <mxCell id="HNHx5nUEhZeaWCpCJhk9-20" value="Recepcionista" style="shape=umlActor;verticalLabelPosition=bottom;verticalAlign=top;html=1;outlineConnect=0;" vertex="1" parent="1">
          <mxGeometry x="415" y="540" width="30" height="60" as="geometry" />
        </mxCell>
        <mxCell id="HNHx5nUEhZeaWCpCJhk9-24" value="" style="endArrow=none;html=1;rounded=0;entryX=0;entryY=0.5;entryDx=0;entryDy=0;" edge="1" parent="1" target="HNHx5nUEhZeaWCpCJhk9-2">
          <mxGeometry width="50" height="50" relative="1" as="geometry">
            <mxPoint x="460" y="400" as="sourcePoint" />
            <mxPoint x="560" y="350" as="targetPoint" />
          </mxGeometry>
        </mxCell>
        <mxCell id="HNHx5nUEhZeaWCpCJhk9-25" value="" style="endArrow=none;html=1;rounded=0;" edge="1" parent="1">
          <mxGeometry width="50" height="50" relative="1" as="geometry">
            <mxPoint x="460" y="400" as="sourcePoint" />
            <mxPoint x="580" y="380" as="targetPoint" />
          </mxGeometry>
        </mxCell>
        <mxCell id="HNHx5nUEhZeaWCpCJhk9-27" value="" style="endArrow=none;html=1;rounded=0;" edge="1" parent="1">
          <mxGeometry width="50" height="50" relative="1" as="geometry">
            <mxPoint x="445" y="560" as="sourcePoint" />
            <mxPoint x="570" y="500" as="targetPoint" />
          </mxGeometry>
        </mxCell>
        <mxCell id="HNHx5nUEhZeaWCpCJhk9-28" value="" style="endArrow=none;html=1;rounded=0;" edge="1" parent="1">
          <mxGeometry width="50" height="50" relative="1" as="geometry">
            <mxPoint x="450" y="560" as="sourcePoint" />
            <mxPoint x="570" y="550" as="targetPoint" />
          </mxGeometry>
        </mxCell>
      </root>
    </mxGraphModel>
  </diagram>
</mxfile>
